<svg xmlns="http://www.w3.org/2000/svg" width="17" height="19" viewBox="0 0 17 19">
    <g fill="#FFF" fill-rule="evenodd">
        <path d="M14.886 2.792a1.349 1.349 0 0 1-.463 1.859L3.13 11.368a1.373 1.373 0 0 1-1.876-.468 1.349 1.349 0 0 1 .464-1.859l11.293-6.717a1.373 1.373 0 0 1 1.875.468z"/>
        <path d="M16.29 17.261c-.38.651-1.214.874-1.868.5l-11.41-6.52a1.349 1.349 0 0 1-.496-1.85 1.373 1.373 0 0 1 1.867-.501l11.41 6.521a1.349 1.349 0 0 1 .496 1.85z"/>
        <circle cx="14" cy="3" r="3"/>
        <circle cx="3" cy="10" r="3"/>
        <circle cx="14" cy="16" r="3"/>
    </g>
</svg>
